Adsworth-72PT G XT1.ufo
<glyph name="quotedbl" format="2">
  <advance width="934"/>
  <unicode hex="0022"/>
  <outline>
    <contour>
      <point x="224" y="962" type="line"/>
      <point x="224" y="1500" type="line"/>
      <point x="317" y="1500" type="line"/>
      <point x="317" y="962" type="line"/>
    </contour>
    <contour>
      <point x="617" y="962" type="line"/>
      <point x="617" y="1500" type="line"/>
      <point x="710" y="1500" type="line"/>
      <point x="710" y="962" type="line"/>
    </contour>
  </outline>
</glyph>
<glyph name="numbersign" format="2">
  <advance width="1432"/>
  <unicode hex="0023"/>
  <outline>
    <contour>
      <point x="280" y="0" type="line"/>
      <point x="540" y="1500" type="line"/>
      <point x="614" y="1500" type="line"/>
      <point x="354" y="0" type="line"/>
    </contour>
    <contour>
      <point x="1316" y="500" type="line"/>
      <point x="66" y="500" type="line"/>
      <point x="66" y="570" type="line"/>
      <point x="1316" y="570" type="line"/>
    </contour>
    <contour>
      <point x="1366" y="915" type="line"/>
      <point x="116" y="915" type="line"/>
      <point x="116" y="985" type="line"/>
      <point x="1366" y="985" type="line"/>
    </contour>
    <contour>
      <point x="800" y="0" type="line"/>
      <point x="1060" y="1500" type="line"/>
      <point x="1134" y="1500" type="line"/>
      <point x="874" y="0" type="line"/>
    </contour>
  </outline>
</glyph>
<glyph name="dollar" format="2">
  <advance width="1545"/>
  <unicode hex="0024"/>
  <outline>
    <contour>
      <point x="1333.0" y="406.0" type="line" smooth="yes"/>
      <point x="1333.0" y="543.0"/>
      <point x="1093" y="711"/>
      <point x="761" y="755" type="qcurve" smooth="yes"/>
      <point x="402" y="801"/>
      <point x="151" y="976"/>
      <point x="151" y="1125" type="qcurve" smooth="yes"/>
      <point x="151" y="1135" type="line" smooth="yes"/>
      <point x="151" y="1301"/>
      <point x="457.0" y="1506.0"/>
      <point x="754" y="1506" type="qcurve" smooth="yes"/>
      <point x="765" y="1506" type="line" smooth="yes"/>
      <point x="1095" y="1506"/>
      <point x="1387.0" y="1322.0"/>
      <point x="1387" y="1117" type="qcurve" smooth="yes"/>
      <point x="1387" y="1088" type="line"/>
      <point x="1282" y="1088.0" type="line"/>
      <point x="1282.0" y="1116" type="line" smooth="yes"/>
      <point x="1282.0" y="1278"/>
      <point x="1047" y="1413"/>
      <point x="765.0" y="1413" type="qcurve" smooth="yes"/>
      <point x="753.0" y="1413" type="line" smooth="yes"/>
      <point x="514.0" y="1413.0"/>
      <point x="256.0" y="1268"/>
      <point x="256.0" y="1150" type="qcurve" smooth="yes"/>
      <point x="256.0" y="1132" type="line" smooth="yes"/>
      <point x="256" y="1045"/>
      <point x="448" y="901"/>
      <point x="800" y="860" type="qcurve" smooth="yes"/>
      <point x="1173" y="818"/>
      <point x="1433.0" y="588.0"/>
      <point x="1433.0" y="418.0" type="qcurve" smooth="yes"/>
      <point x="1433.0" y="401.0" type="line" smooth="yes"/>
      <point x="1433.0" y="226.0"/>
      <point x="1105" y="-18.0"/>
      <point x="793" y="-18.0" type="qcurve" smooth="yes"/>
      <point x="788" y="-18.0" type="line" smooth="yes"/>
      <point x="450.0" y="-18"/>
      <point x="116" y="211.0"/>
      <point x="116" y="386.0" type="qcurve" smooth="yes"/>
      <point x="116" y="434.0" type="line"/>
      <point x="222" y="434.0" type="line"/>
      <point x="222.0" y="385" type="line" smooth="yes"/>
      <point x="222.0" y="238.0"/>
      <point x="494" y="73"/>
      <point x="782.0" y="73" type="qcurve" smooth="yes"/>
      <point x="789.0" y="73" type="line" smooth="yes"/>
      <point x="1081.0" y="73.0"/>
      <point x="1333.0" y="275.0"/>
      <point x="1333.0" y="400" type="qcurve" smooth="yes"/>
    </contour>
    <contour>
      <point x="755.0" y="-130.0" type="line"/>
      <point x="755.0" y="791.0" type="line"/>
      <point x="830.0" y="791.0" type="line"/>
      <point x="830.0" y="-130.0" type="line"/>
    </contour>
    <contour>
      <point x="745.0" y="800.0" type="line"/>
      <point x="745.0" y="1593.0" type="line"/>
      <point x="820.0" y="1593.0" type="line"/>
      <point x="820.0" y="800.0" type="line"/>
    </contour>
  </outline>
</glyph>
<glyph name="percent" format="2">
  <advance width="2163"/>
  <unicode hex="0025"/>
  <outline>
    <contour>
      <point x="520" y="691" type="line" smooth="yes"/>
      <point x="304" y="691"/>
      <point x="60" y="902"/>
      <point x="60" y="1088" type="qcurve" smooth="yes"/>
      <point x="60" y="1114" type="line" smooth="yes"/>
      <point x="60" y="1300"/>
      <point x="311" y="1520"/>
      <point x="518" y="1520" type="qcurve" smooth="yes"/>
      <point x="523" y="1520" type="line" smooth="yes"/>
      <point x="743" y="1520"/>
      <point x="993" y="1300"/>
      <point x="993" y="1114" type="qcurve" smooth="yes"/>
      <point x="993" y="1088" type="line" smooth="yes"/>
      <point x="993" y="902"/>
      <point x="739" y="691"/>
      <point x="526" y="691" type="qcurve" smooth="yes"/>
    </contour>
    <contour>
      <point x="523" y="772" type="line" smooth="yes"/>
      <point x="702" y="772"/>
      <point x="899" y="942"/>
      <point x="899" y="1088" type="qcurve" smooth="yes"/>
      <point x="899" y="1111" type="line" smooth="yes"/>
      <point x="899" y="1258"/>
      <point x="705" y="1434"/>
      <point x="523" y="1434" type="qcurve" smooth="yes"/>
      <point x="518" y="1434" type="line" smooth="yes"/>
      <point x="344" y="1434"/>
      <point x="154" y="1258"/>
      <point x="154" y="1111" type="qcurve" smooth="yes"/>
      <point x="154" y="1088" type="line" smooth="yes"/>
      <point x="154" y="942"/>
      <point x="341" y="772"/>
      <point x="518" y="772" type="qcurve" smooth="yes"/>
    </contour>
    <contour>
      <point x="1630" y="-19" type="line" smooth="yes"/>
      <point x="1414" y="-19"/>
      <point x="1170" y="192"/>
      <point x="1170" y="378" type="qcurve" smooth="yes"/>
      <point x="1170" y="404" type="line" smooth="yes"/>
      <point x="1170" y="590"/>
      <point x="1421" y="810"/>
      <point x="1628" y="810" type="qcurve" smooth="yes"/>
      <point x="1633" y="810" type="line" smooth="yes"/>
      <point x="1853" y="810"/>
      <point x="2103" y="590"/>
      <point x="2103" y="404" type="qcurve" smooth="yes"/>
      <point x="2103" y="378" type="line" smooth="yes"/>
      <point x="2103" y="192"/>
      <point x="1849" y="-19"/>
      <point x="1636" y="-19" type="qcurve" smooth="yes"/>
    </contour>
    <contour>
      <point x="1633" y="62" type="line" smooth="yes"/>
      <point x="1812" y="62"/>
      <point x="2009" y="232"/>
      <point x="2009" y="378" type="qcurve" smooth="yes"/>
      <point x="2009" y="401" type="line" smooth="yes"/>
      <point x="2009" y="548"/>
      <point x="1815" y="724"/>
      <point x="1633" y="724" type="qcurve" smooth="yes"/>
      <point x="1628" y="724" type="line" smooth="yes"/>
      <point x="1454" y="724"/>
      <point x="1264" y="548"/>
      <point x="1264" y="401" type="qcurve" smooth="yes"/>
      <point x="1264" y="378" type="line" smooth="yes"/>
      <point x="1264" y="232"/>
      <point x="1451" y="62"/>
      <point x="1628" y="62" type="qcurve" smooth="yes"/>
    </contour>
    <contour>
      <point x="500" y="0" type="line"/>
      <point x="1540" y="1500" type="line"/>
      <point x="1640" y="1500" type="line"/>
      <point x="600" y="0" type="line"/>
    </contour>
  </outline>
</glyph>
<glyph name="comma" format="2">
  <advance width="847"/>
  <unicode hex="002C"/>
  <outline>
    <contour>
      <point x="212" y="-90" type="line"/>
      <point x="379" y="129" type="line" smooth="yes"/>
      <point x="396" y="148"/>
      <point x="429" y="182.0"/>
      <point x="451" y="182" type="qcurve" smooth="yes"/>
      <point x="456" y="182.0" type="line" smooth="yes"/>
      <point x="485.0" y="182.0"/>
      <point x="536.0" y="141.0"/>
      <point x="536" y="115.0" type="qcurve" smooth="yes"/>
      <point x="536.0" y="110" type="line" smooth="yes"/>
      <point x="536.0" y="81.0"/>
      <point x="298" y="-87"/>
      <point x="248" y="-133" type="qcurve"/>
    </contour>
  </outline>
</glyph>
<glyph name="period" format="2">
  <advance width="847"/>
  <unicode hex="002E"/>
  <outline>
    <contour>
      <point x="422" y="-9" type="line" smooth="yes"/>
      <point x="463" y="-9"/>
      <point x="512" y="38"/>
      <point x="512" y="77" type="qcurve" smooth="yes"/>
      <point x="512" y="83" type="line" smooth="yes"/>
      <point x="512" y="121"/>
      <point x="464" y="169"/>
      <point x="422" y="169" type="qcurve" smooth="yes"/>
      <point x="421" y="169" type="line" smooth="yes"/>
      <point x="382" y="169"/>
      <point x="334" y="121"/>
      <point x="334" y="83" type="qcurve" smooth="yes"/>
      <point x="334" y="77" type="line" smooth="yes"/>
      <point x="334" y="38"/>
      <point x="381" y="-9"/>
      <point x="421" y="-9" type="qcurve" smooth="yes"/>
    </contour>
  </outline>
</glyph>
<glyph name="slash" format="2">
  <advance width="892"/>
  <unicode hex="002F"/>
  <outline>
    <contour>
      <point x="-120" y="0" type="line"/>
      <point x="900" y="1500" type="line"/>
      <point x="1012" y="1500" type="line"/>
      <point x="-8" y="0" type="line"/>
    </contour>
  </outline>
</glyph>
<glyph name="zero" format="2">
  <advance width="1534"/>
  <unicode hex="0030"/>
  <outline>
    <contour>
      <point x="767" y="-26" type="line" smooth="yes"/>
      <point x="443" y="-26"/>
      <point x="96" y="400"/>
      <point x="96" y="738" type="qcurve" smooth="yes"/>
      <point x="96" y="759" type="line" smooth="yes"/>
      <point x="96" y="1093"/>
      <point x="455" y="1512"/>
      <point x="763" y="1512" type="qcurve" smooth="yes"/>
      <point x="769" y="1512" type="line" smooth="yes"/>
      <point x="1087" y="1512"/>
      <point x="1438" y="1093"/>
      <point x="1438" y="759" type="qcurve" smooth="yes"/>
      <point x="1438" y="738" type="line" smooth="yes"/>
      <point x="1438" y="400"/>
      <point x="1101" y="-26"/>
      <point x="773" y="-26" type="qcurve" smooth="yes"/>
    </contour>
    <contour>
      <point x="771" y="58" type="line" smooth="yes"/>
      <point x="1044" y="58"/>
      <point x="1346" y="430"/>
      <point x="1346" y="708" type="qcurve" smooth="yes"/>
      <point x="1346" y="773" type="line" smooth="yes"/>
      <point x="1346" y="1050"/>
      <point x="1048" y="1423"/>
      <point x="771" y="1423" type="qcurve" smooth="yes"/>
      <point x="761" y="1423" type="line" smooth="yes"/>
      <point x="490" y="1423"/>
      <point x="188" y="1050"/>
      <point x="188" y="773" type="qcurve" smooth="yes"/>
      <point x="188" y="708" type="line" smooth="yes"/>
      <point x="188" y="430"/>
      <point x="486" y="58"/>
      <point x="761" y="58" type="qcurve" smooth="yes"/>
    </contour>
  </outline>
</glyph>
<glyph name="one" format="2">
  <advance width="462"/>
  <unicode hex="0031"/>
  <outline>
    <contour>
      <point x="186" y="0" type="line"/>
      <point x="186" y="1500" type="line"/>
      <point x="276" y="1500" type="line"/>
      <point x="276" y="0" type="line"/>
    </contour>
  </outline>
</glyph>
<glyph name="two" format="2">
  <advance width="1376"/>
  <unicode hex="0032"/>
  <outline>
    <contour>
      <point x="1357" y="0.0" type="line"/>
      <point x="54" y="0" type="line"/>
      <point x="54" y="55" type="line"/>
      <point x="904" y="644" type="line" smooth="yes"/>
      <point x="1012" y="719"/>
      <point x="1220.0" y="952.0"/>
      <point x="1220" y="1111.0" type="qcurve" smooth="yes"/>
      <point x="1220" y="1116.0" type="line" smooth="yes"/>
      <point x="1220.0" y="1270.0"/>
      <point x="974.0" y="1421.0"/>
      <point x="716" y="1421.0" type="qcurve" smooth="yes"/>
      <point x="693" y="1421.0" type="line" smooth="yes"/>
      <point x="439" y="1421.0"/>
      <point x="155" y="1257.0"/>
      <point x="152" y="1117.0" type="qcurve" smooth="yes"/>
      <point x="151" y="1035.0" type="line"/>
      <point x="63" y="1030.0" type="line"/>
      <point x="65" y="1128.0" type="line" smooth="yes"/>
      <point x="69" y="1275"/>
      <point x="386.0" y="1513.0"/>
      <point x="671" y="1513.0" type="qcurve" smooth="yes"/>
      <point x="734" y="1513.0" type="line" smooth="yes"/>
      <point x="1002.0" y="1513.0"/>
      <point x="1309.0" y="1313.0"/>
      <point x="1309.0" y="1120" type="qcurve" smooth="yes"/>
      <point x="1309.0" y="1112" type="line" smooth="yes"/>
      <point x="1309.0" y="931.0"/>
      <point x="1104" y="668"/>
      <point x="977" y="571" type="qcurve" smooth="yes"/>
      <point x="244" y="82" type="line"/>
      <point x="1357" y="82.0" type="line"/>
    </contour>
  </outline>
</glyph>
<glyph name="three" format="2">
  <advance width="1309"/>
  <unicode hex="0033"/>
  <outline>
    <contour>
      <point x="698" y="787" type="qcurve" smooth="yes"/>
      <point x="439" y="788.0" type="line"/>
      <point x="439" y="864.0" type="line"/>
      <point x="762" y="867.0" type="line" smooth="yes"/>
      <point x="938" y="869"/>
      <point x="1110.0" y="1033.0"/>
      <point x="1110" y="1146.0" type="qcurve" smooth="yes"/>
      <point x="1110" y="1169.0" type="line" smooth="yes"/>
      <point x="1110" y="1273"/>
      <point x="890.0" y="1416.0"/>
      <point x="658" y="1416.0" type="qcurve"/>
      <point x="661" y="1416.0" type="line"/>
      <point x="398" y="1416"/>
      <point x="181" y="1250"/>
      <point x="171" y="1130" type="qcurve" smooth="yes"/>
      <point x="169" y="1104.0" type="line"/>
      <point x="74" y="1104.0" type="line"/>
      <point x="78" y="1152" type="line" smooth="yes"/>
      <point x="87" y="1305"/>
      <point x="379" y="1515"/>
      <point x="654" y="1515.0" type="qcurve"/>
      <point x="657" y="1515.0" type="line"/>
      <point x="935.0" y="1515.0"/>
      <point x="1212" y="1312"/>
      <point x="1212" y="1167.0" type="qcurve" smooth="yes"/>
      <point x="1212" y="1150.0" type="line" smooth="yes"/>
      <point x="1212.0" y="1010.0"/>
      <point x="1013" y="840.0"/>
      <point x="885" y="828.0" type="qcurve"/>
      <point x="1014" y="807.0"/>
      <point x="1278.0" y="620.0"/>
      <point x="1278.0" y="446.0" type="qcurve" smooth="yes"/>
      <point x="1278.0" y="438.0" type="line" smooth="yes"/>
      <point x="1278.0" y="229.0"/>
      <point x="953.0" y="-41.0"/>
      <point x="678" y="-41" type="qcurve"/>
      <point x="667" y="-41.0" type="line"/>
      <point x="371" y="-41"/>
      <point x="53" y="219"/>
      <point x="39" y="385" type="qcurve" smooth="yes"/>
      <point x="35" y="431.0" type="line"/>
      <point x="129" y="431.0" type="line"/>
      <point x="131" y="389" type="line" smooth="yes"/>
      <point x="140" y="251"/>
      <point x="423" y="46"/>
      <point x="655" y="46.0" type="qcurve"/>
      <point x="663" y="46" type="line"/>
      <point x="915" y="46"/>
      <point x="1176.0" y="284.0"/>
      <point x="1176" y="441.0" type="qcurve" smooth="yes"/>
      <point x="1176" y="449.0" type="line" smooth="yes"/>
      <point x="1176.0" y="602.0"/>
      <point x="895" y="786"/>
    </contour>
  </outline>
</glyph>
<glyph name="five" format="2">
  <advance width="1332"/>
  <unicode hex="0035"/>
  <outline>
    <contour>
      <point x="715" y="978" type="line" smooth="yes"/>
      <point x="986.0" y="978.0"/>
      <point x="1293.0" y="732.0"/>
      <point x="1293" y="496" type="qcurve" smooth="yes"/>
      <point x="1293.0" y="484" type="line" smooth="yes"/>
      <point x="1293.0" y="255"/>
      <point x="959.0" y="-26.0"/>
      <point x="670" y="-26" type="qcurve" smooth="yes"/>
      <point x="652" y="-26.0" type="line" smooth="yes"/>
      <point x="359" y="-26"/>
      <point x="61" y="195"/>
      <point x="44" y="352" type="qcurve" smooth="yes"/>
      <point x="39" y="404" type="line"/>
      <point x="126" y="404.0" type="line"/>
      <point x="127" y="375.0" type="line" smooth="yes"/>
      <point x="129.0" y="232"/>
      <point x="413.0" y="58"/>
      <point x="648" y="58.0" type="qcurve" smooth="yes"/>
      <point x="671" y="58.0" type="line" smooth="yes"/>
      <point x="913.0" y="58.0"/>
      <point x="1201.0" y="280.0"/>
      <point x="1201" y="480.0" type="qcurve" smooth="yes"/>
      <point x="1201" y="503.0" type="line" smooth="yes"/>
      <point x="1201.0" y="699.0"/>
      <point x="918.0" y="897.0"/>
      <point x="691" y="897.0" type="qcurve" smooth="yes"/>
      <point x="670" y="897" type="line" smooth="yes"/>
      <point x="519" y="897.0"/>
      <point x="265" y="805"/>
      <point x="214" y="741" type="qcurve"/>
      <point x="112" y="742" type="line"/>
      <point x="175" y="1500" type="line"/>
      <point x="1142" y="1500" type="line"/>
      <point x="1142" y="1418" type="line"/>
      <point x="257" y="1418" type="line"/>
      <point x="192" y="821" type="line"/>
      <point x="236" y="868"/>
      <point x="517.0" y="978.0"/>
      <point x="687" y="978.0" type="qcurve" smooth="yes"/>
    </contour>
  </outline>
</glyph>
<glyph name="six" format="2">
  <advance width="1385"/>
  <unicode hex="0036"/>
  <outline>
    <contour>
      <point x="190" y="492" type="qcurve"/>
      <point x="191" y="480" type="line" smooth="yes"/>
      <point x="203" y="307"/>
      <point x="493" y="54"/>
      <point x="746" y="54" type="qcurve" smooth="yes"/>
      <point x="764" y="54" type="line" smooth="yes"/>
      <point x="999" y="54"/>
      <point x="1240" y="270"/>
      <point x="1240" y="446" type="qcurve" smooth="yes"/>
      <point x="1240" y="467" type="line" smooth="yes"/>
      <point x="1240" y="653"/>
      <point x="993" y="850"/>
      <point x="745" y="850" type="qcurve" smooth="yes"/>
      <point x="733" y="850" type="line" smooth="yes"/>
      <point x="521" y="850"/>
      <point x="183" y="641"/>
      <point x="186" y="519" type="qcurve" smooth="yes"/>
      <point x="184" y="484" type="line"/>
      <point x="127" y="485" type="line"/>
      <point x="128" y="517" type="line" smooth="yes"/>
      <point x="144" y="714"/>
      <point x="524" y="933"/>
      <point x="748" y="933" type="qcurve" smooth="yes"/>
      <point x="756" y="933" type="line" smooth="yes"/>
      <point x="1048" y="933"/>
      <point x="1335" y="681"/>
      <point x="1335" y="461" type="qcurve" smooth="yes"/>
      <point x="1335" y="448" type="line" smooth="yes"/>
      <point x="1335" y="242"/>
      <point x="1019" y="-26"/>
      <point x="755" y="-26" type="qcurve" smooth="yes"/>
      <point x="741" y="-26" type="line" smooth="yes"/>
      <point x="430" y="-26"/>
      <point x="105" y="303"/>
      <point x="101" y="615" type="qcurve" smooth="yes"/>
      <point x="100" y="588" type="line" smooth="yes"/>
      <point x="94" y="980"/>
      <point x="669" y="1530"/>
      <point x="1083" y="1530" type="qcurve" smooth="yes"/>
      <point x="1158" y="1530" type="line"/>
      <point x="1158" y="1447" type="line"/>
      <point x="1109" y="1447" type="line" smooth="yes"/>
      <point x="717" y="1447"/>
      <point x="153" y="939"/>
    </contour>
  </outline>
</glyph>
<glyph name="less" format="2">
  <advance width="1420"/>
  <unicode hex="003C"/>
  <outline>
    <contour>
      <point x="68.0" y="704.0" type="line"/>
      <point x="68.0" y="815.0" type="line"/>
      <point x="1318.0" y="1296.0" type="line"/>
      <point x="1318.0" y="1192.0" type="line"/>
      <point x="179.0" y="771.0" type="line"/>
      <point x="1318.0" y="291.0" type="line"/>
      <point x="1318.0" y="200.0" type="line"/>
    </contour>
  </outline>
</glyph>
<glyph name="equal" format="2">
  <advance width="1420"/>
  <unicode hex="003D"/>
  <outline>
    <contour>
      <point x="1367" y="480" type="line"/>
      <point x="60" y="480" type="line"/>
      <point x="60" y="565" type="line"/>
      <point x="1367" y="565" type="line"/>
    </contour>
    <contour>
      <point x="1367" y="890" type="line"/>
      <point x="60" y="890" type="line"/>
      <point x="60" y="975" type="line"/>
      <point x="1367" y="975" type="line"/>
    </contour>
  </outline>
</glyph>
<glyph name="question" format="2">
  <advance width="1197"/>
  <unicode hex="003F"/>
  <outline>
    <contour>
      <point x="547" y="-9" type="line" smooth="yes"/>
      <point x="584" y="-9"/>
      <point x="624" y="33"/>
      <point x="624" y="67" type="qcurve" smooth="yes"/>
      <point x="624" y="73" type="line" smooth="yes"/>
      <point x="624" y="107"/>
      <point x="584" y="150"/>
      <point x="547" y="150" type="qcurve" smooth="yes"/>
      <point x="544" y="150" type="line" smooth="yes"/>
      <point x="510" y="150"/>
      <point x="471" y="107"/>
      <point x="471" y="73" type="qcurve" smooth="yes"/>
      <point x="471" y="67" type="line" smooth="yes"/>
      <point x="471" y="32"/>
      <point x="509" y="-9"/>
      <point x="544" y="-9" type="qcurve" smooth="yes"/>
    </contour>
    <contour>
      <point x="583" y="362" type="line"/>
      <point x="493" y="362" type="line"/>
      <point x="495" y="726" type="line"/>
      <point x="750" y="757"/>
      <point x="1053.0" y="978.0"/>
      <point x="1053" y="1133" type="qcurve" smooth="yes"/>
      <point x="1053" y="1146" type="line" smooth="yes"/>
      <point x="1053.0" y="1286.0"/>
      <point x="810" y="1432.0"/>
      <point x="591" y="1432" type="qcurve" smooth="yes"/>
      <point x="584" y="1432" type="line" smooth="yes"/>
      <point x="354" y="1432"/>
      <point x="105.0" y="1273"/>
      <point x="105" y="1127" type="qcurve" smooth="yes"/>
      <point x="105" y="1092" type="line"/>
      <point x="13" y="1094" type="line"/>
      <point x="13" y="1125" type="line" smooth="yes"/>
      <point x="13" y="1313"/>
      <point x="339" y="1523"/>
      <point x="587" y="1523" type="qcurve" smooth="yes"/>
      <point x="595" y="1523" type="line" smooth="yes"/>
      <point x="849.0" y="1523.0"/>
      <point x="1163.0" y="1321.0"/>
      <point x="1163" y="1147" type="qcurve" smooth="yes"/>
      <point x="1163" y="1134" type="line" smooth="yes"/>
      <point x="1163.0" y="960.0"/>
      <point x="882" y="694"/>
      <point x="584" y="656" type="qcurve"/>
    </contour>
  </outline>
</glyph>
<glyph name="A" format="2">
  <advance width="1490"/>
  <unicode hex="0041"/>
  <outline>
    <contour>
      <point x="1240" y="478" type="line"/>
      <point x="240" y="478" type="line"/>
      <point x="240" y="567" type="line"/>
      <point x="1240" y="567" type="line"/>
    </contour>
    <contour>
      <point x="800" y="1500" type="line"/>
      <point x="1500" y="0" type="line"/>
      <point x="1394" y="0" type="line"/>
      <point x="749" y="1418" type="line"/>
      <point x="742" y="1418" type="line"/>
      <point x="98" y="0" type="line"/>
      <point x="-10" y="0" type="line"/>
      <point x="680" y="1500" type="line"/>
    </contour>
  </outline>
</glyph>
<glyph name="B" format="2">
  <advance width="1485"/>
  <unicode hex="0042"/>
  <outline>
    <contour>
      <point x="231" y="0" type="line"/>
      <point x="231" y="1500" type="line"/>
      <point x="322" y="1500" type="line"/>
      <point x="322" y="0" type="line"/>
    </contour>
    <contour>
      <point x="900" y="836" type="line"/>
      <point x="1152" y="836"/>
      <point x="1413" y="628"/>
      <point x="1413.0" y="428" type="qcurve" smooth="yes"/>
      <point x="1413.0" y="418" type="line" smooth="yes"/>
      <point x="1413.0" y="222"/>
      <point x="1154.0" y="0.0"/>
      <point x="934" y="0" type="qcurve" smooth="yes"/>
      <point x="279" y="0" type="line"/>
      <point x="279" y="85" type="line"/>
      <point x="960" y="85" type="line" smooth="yes"/>
      <point x="1112.0" y="85.0"/>
      <point x="1315" y="262"/>
      <point x="1315" y="415" type="qcurve" smooth="yes"/>
      <point x="1315" y="437" type="line" smooth="yes"/>
      <point x="1315" y="586"/>
      <point x="1112" y="751"/>
      <point x="970" y="751" type="qcurve" smooth="yes"/>
      <point x="279" y="751" type="line"/>
      <point x="279" y="840" type="line"/>
      <point x="895" y="840" type="line" smooth="yes"/>
      <point x="1051" y="840"/>
      <point x="1203.0" y="975"/>
      <point x="1203.0" y="1110" type="qcurve" smooth="yes"/>
      <point x="1203.0" y="1133" type="line" smooth="yes"/>
      <point x="1203.0" y="1269.0"/>
      <point x="1039" y="1415"/>
      <point x="905" y="1415" type="qcurve" smooth="yes"/>
      <point x="279" y="1415" type="line"/>
      <point x="279" y="1500" type="line"/>
      <point x="889" y="1500" type="line" smooth="yes"/>
      <point x="1096" y="1500"/>
      <point x="1303" y="1298"/>
      <point x="1303.0" y="1133" type="qcurve" smooth="yes"/>
      <point x="1303" y="1122" type="line" smooth="yes"/>
      <point x="1303" y="961"/>
      <point x="1101" y="751"/>
      <point x="872" y="751" type="qcurve"/>
    </contour>
  </outline>
</glyph>
<glyph name="C" format="2">
  <advance width="1958"/>
  <unicode hex="0043"/>
  <outline>
    <contour>
      <point x="1054" y="78" type="line" smooth="yes"/>
      <point x="1417" y="78"/>
      <point x="1770" y="331"/>
      <point x="1782" y="553" type="qcurve" smooth="yes"/>
      <point x="1783" y="547" type="line"/>
      <point x="1879" y="552" type="line"/>
      <point x="1878" y="530" type="line" smooth="yes"/>
      <point x="1870" y="265"/>
      <point x="1427" y="-21"/>
      <point x="1059" y="-21" type="qcurve" smooth="yes"/>
      <point x="1049" y="-21" type="line" smooth="yes"/>
      <point x="683" y="-21"/>
      <point x="116" y="373"/>
      <point x="116" y="751" type="qcurve" smooth="yes"/>
      <point x="116" y="733" type="line" smooth="yes"/>
      <point x="116" y="1106"/>
      <point x="666" y="1512"/>
      <point x="1021" y="1512" type="qcurve" smooth="yes"/>
      <point x="1032" y="1512" type="line" smooth="yes"/>
      <point x="1447" y="1512"/>
      <point x="1876" y="1230"/>
      <point x="1880" y="982" type="qcurve" smooth="yes"/>
      <point x="1881" y="937" type="line"/>
      <point x="1782" y="947" type="line"/>
      <point x="1782" y="972" type="line" smooth="yes"/>
      <point x="1782" y="1177"/>
      <point x="1380" y="1418"/>
      <point x="1042" y="1418" type="qcurve" smooth="yes"/>
      <point x="1031" y="1418" type="line" smooth="yes"/>
      <point x="697.0" y="1418.0"/>
      <point x="214" y="1066"/>
      <point x="214" y="754" type="qcurve" smooth="yes"/>
      <point x="214" y="733" type="line" smooth="yes"/>
      <point x="214" y="417.0"/>
      <point x="694" y="78"/>
      <point x="1026" y="78" type="qcurve" smooth="yes"/>
    </contour>
  </outline>
</glyph>
<glyph name="E" format="2">
  <advance width="1346"/>
  <unicode hex="0045"/>
  <outline>
    <contour>
      <point x="210" y="0" type="line"/>
      <point x="210" y="1500" type="line"/>
      <point x="300" y="1500" type="line"/>
      <point x="300" y="0" type="line"/>
    </contour>
    <contour>
      <point x="1090" y="749" type="line"/>
      <point x="251" y="749" type="line"/>
      <point x="251" y="838" type="line"/>
      <point x="1090" y="838" type="line"/>
    </contour>
    <contour>
      <point x="1250" y="1411" type="line"/>
      <point x="251" y="1411" type="line"/>
      <point x="251" y="1500" type="line"/>
      <point x="1250" y="1500" type="line"/>
    </contour>
    <contour>
      <point x="1250" y="0" type="line"/>
      <point x="251" y="0" type="line"/>
      <point x="251" y="89" type="line"/>
      <point x="1250" y="89" type="line"/>
    </contour>
  </outline>
</glyph>
<glyph name="F" format="2">
  <advance width="1242"/>
  <unicode hex="0046"/>
  <outline>
    <contour>
      <point x="210" y="0" type="line"/>
      <point x="210" y="1500" type="line"/>
      <point x="300" y="1500" type="line"/>
      <point x="300" y="0" type="line"/>
    </contour>
    <contour>
      <point x="1000" y="736" type="line"/>
      <point x="250" y="736" type="line"/>
      <point x="250" y="825" type="line"/>
      <point x="1000" y="825" type="line"/>
    </contour>
    <contour>
      <point x="1180" y="1411" type="line"/>
      <point x="250" y="1411" type="line"/>
      <point x="250" y="1500" type="line"/>
      <point x="1180" y="1500" type="line"/>
    </contour>
  </outline>
</glyph>
<glyph name="H" format="2">
  <advance width="1792"/>
  <unicode hex="0048"/>
  <outline>
    <contour>
      <point x="216" y="0" type="line"/>
      <point x="216" y="1500" type="line"/>
      <point x="306" y="1500" type="line"/>
      <point x="306" y="0" type="line"/>
    </contour>
    <contour>
      <point x="1486" y="0" type="line"/>
      <point x="1486" y="1500" type="line"/>
      <point x="1576" y="1500" type="line"/>
      <point x="1576" y="0" type="line"/>
    </contour>
    <contour>
      <point x="1536" y="753" type="line"/>
      <point x="256" y="753" type="line"/>
      <point x="256" y="836" type="line"/>
      <point x="1536" y="836" type="line"/>
    </contour>
  </outline>
</glyph>
<glyph name="I" format="2">
  <advance width="382"/>
  <unicode hex="0049"/>
  <outline>
    <contour>
      <point x="144" y="0" type="line"/>
      <point x="144" y="1500" type="line"/>
      <point x="238" y="1500" type="line"/>
      <point x="238" y="0" type="line"/>
    </contour>
    <contour>
      <point x="-19" y="0" type="line"/>
      <point x="371" y="0" type="line"/>
      <point x="371" y="84" type="line"/>
      <point x="-19" y="84" type="line"/>
    </contour>
    <contour>
      <point x="-19" y="1416" type="line"/>
      <point x="371" y="1416" type="line"/>
      <point x="371" y="1500" type="line"/>
      <point x="-19" y="1500" type="line"/>
    </contour>
  </outline>
</glyph>
<glyph name="J" format="2">
  <advance width="1176"/>
  <unicode hex="004A"/>
  <outline>
    <contour>
      <point x="988.0" y="443.0" type="line" smooth="yes"/>
      <point x="988.0" y="210.0"/>
      <point x="733" y="-17"/>
      <point x="495" y="-17" type="qcurve" smooth="yes"/>
      <point x="488" y="-17" type="line" smooth="yes"/>
      <point x="267.0" y="-17"/>
      <point x="18" y="189"/>
      <point x="11" y="357" type="qcurve" smooth="yes"/>
      <point x="11" y="402" type="line"/>
      <point x="105" y="390" type="line"/>
      <point x="105" y="335" type="line" smooth="yes"/>
      <point x="105.0" y="228.0"/>
      <point x="308.0" y="67"/>
      <point x="480" y="67" type="qcurve" smooth="yes"/>
      <point x="503" y="67" type="line" smooth="yes"/>
      <point x="686" y="67"/>
      <point x="898.0" y="254.0"/>
      <point x="898.0" y="445.0" type="qcurve" smooth="yes"/>
      <point x="898" y="1510" type="line"/>
      <point x="988" y="1500" type="line"/>
    </contour>
  </outline>
</glyph>
<glyph name="K" format="2">
  <advance width="1330"/>
  <unicode hex="004B"/>
  <outline>
    <contour>
      <point x="210" y="0" type="line"/>
      <point x="210" y="1500" type="line"/>
      <point x="300" y="1500" type="line"/>
      <point x="300" y="697" type="line"/>
      <point x="506" y="880" type="line"/>
      <point x="1153" y="1500" type="line"/>
      <point x="1290" y="1500" type="line"/>
      <point x="611" y="857" type="line"/>
      <point x="569" y="818" type="line"/>
      <point x="300" y="577" type="line"/>
      <point x="300" y="0" type="line"/>
    </contour>
    <contour>
      <point x="466" y="852" type="line"/>
      <point x="544" y="897" type="line"/>
      <point x="1385" y="0" type="line"/>
      <point x="1251" y="0" type="line"/>
    </contour>
  </outline>
</glyph>
<glyph name="O" format="2">
  <advance width="2102"/>
  <unicode hex="004F"/>
  <outline>
    <contour>
      <point x="1035" y="-18.0" type="line" smooth="yes"/>
      <point x="602.0" y="-18"/>
      <point x="116" y="381.0"/>
      <point x="116" y="752" type="qcurve" smooth="yes"/>
      <point x="116" y="726" type="line" smooth="yes"/>
      <point x="116" y="1110.0"/>
      <point x="622.0" y="1513.0"/>
      <point x="1042" y="1513.0" type="qcurve" smooth="yes"/>
      <point x="1053" y="1513.0" type="line" smooth="yes"/>
      <point x="1469" y="1513.0"/>
      <point x="1986.0" y="1117.0"/>
      <point x="1986" y="746.0" type="qcurve" smooth="yes"/>
      <point x="1986" y="744.0" type="line" smooth="yes"/>
      <point x="1986.0" y="378.0"/>
      <point x="1470.0" y="-18.0"/>
      <point x="1046" y="-18.0" type="qcurve" smooth="yes"/>
    </contour>
    <contour>
      <point x="1055.0" y="74" type="line" smooth="yes"/>
      <point x="1433" y="74"/>
      <point x="1893.0" y="417.0"/>
      <point x="1893.0" y="751" type="qcurve" smooth="yes"/>
      <point x="1893.0" y="735" type="line" smooth="yes"/>
      <point x="1893.0" y="1072.0"/>
      <point x="1438" y="1421"/>
      <point x="1055.0" y="1421.0" type="qcurve" smooth="yes"/>
      <point x="1041.0" y="1421.0" type="line" smooth="yes"/>
      <point x="655" y="1421"/>
      <point x="209" y="1088.0"/>
      <point x="209.0" y="745" type="qcurve" smooth="yes"/>
      <point x="209.0" y="739" type="line" smooth="yes"/>
      <point x="209" y="418.0"/>
      <point x="619" y="74"/>
      <point x="1041.0" y="74" type="qcurve" smooth="yes"/>
    </contour>
  </outline>
</glyph>
<glyph name="Q" format="2">
  <advance width="2102"/>
  <unicode hex="0051"/>
  <outline>
    <contour>
      <point x="1035" y="-8.0" type="line" smooth="yes"/>
      <point x="602" y="-8"/>
      <point x="116" y="371.0"/>
      <point x="116" y="752" type="qcurve" smooth="yes"/>
      <point x="116" y="726" type="line" smooth="yes"/>
      <point x="116" y="1110.0"/>
      <point x="622.0" y="1513.0"/>
      <point x="1042" y="1513.0" type="qcurve" smooth="yes"/>
      <point x="1053" y="1513.0" type="line" smooth="yes"/>
      <point x="1469" y="1513.0"/>
      <point x="1986.0" y="1117.0"/>
      <point x="1986" y="746.0" type="qcurve" smooth="yes"/>
      <point x="1986" y="744.0" type="line" smooth="yes"/>
      <point x="1986.0" y="368.0"/>
      <point x="1460.0" y="-8.0"/>
      <point x="1046" y="-8.0" type="qcurve" smooth="yes"/>
    </contour>
    <contour>
      <point x="1060.0" y="74" type="line" smooth="yes"/>
      <point x="1438" y="74"/>
      <point x="1898.0" y="407.0"/>
      <point x="1898.0" y="741" type="qcurve" smooth="yes"/>
      <point x="1898.0" y="735" type="line" smooth="yes"/>
      <point x="1898" y="1072"/>
      <point x="1443" y="1421"/>
      <point x="1060.0" y="1421.0" type="qcurve" smooth="yes"/>
      <point x="1046.0" y="1421.0" type="line" smooth="yes"/>
      <point x="660" y="1421"/>
      <point x="214" y="1088.0"/>
      <point x="214.0" y="745" type="qcurve" smooth="yes"/>
      <point x="214.0" y="729" type="line" smooth="yes"/>
      <point x="214" y="408.0"/>
      <point x="624" y="74"/>
      <point x="1046.0" y="74" type="qcurve" smooth="yes"/>
    </contour>
    <contour>
      <point x="1123" y="68" type="line"/>
      <point x="2086" y="53" type="line"/>
      <point x="2086" y="-42" type="line"/>
      <point x="1124" y="8" type="line"/>
    </contour>
  </outline>
</glyph>
<glyph name="X" format="2">
  <advance width="1320"/>
  <unicode hex="0058"/>
  <outline>
    <contour>
      <point x="-20" y="0" type="line"/>
      <point x="630" y="792" type="line"/>
      <point x="663" y="811" type="line"/>
      <point x="1205" y="1500" type="line"/>
      <point x="1330" y="1500" type="line"/>
      <point x="718" y="750" type="line"/>
      <point x="681" y="725" type="line"/>
      <point x="105" y="0" type="line"/>
    </contour>
    <contour>
      <point x="1201" y="0" type="line"/>
      <point x="638" y="719" type="line"/>
      <point x="618" y="733" type="line"/>
      <point x="1" y="1500" type="line"/>
      <point x="141" y="1500" type="line"/>
      <point x="693" y="788" type="line"/>
      <point x="700" y="791" type="line"/>
      <point x="1340" y="0" type="line"/>
    </contour>
  </outline>
</glyph>
<glyph name="Y" format="2">
  <advance width="1550"/>
  <unicode hex="0059"/>
  <outline>
    <contour>
      <point x="735" y="500" type="line"/>
      <point x="0" y="1500" type="line"/>
      <point x="124" y="1500" type="line"/>
      <point x="771" y="591" type="line"/>
      <point x="1421" y="1500" type="line"/>
      <point x="1550" y="1500" type="line"/>
      <point x="813" y="500" type="line"/>
    </contour>
    <contour>
      <point x="729" y="0" type="line"/>
      <point x="729" y="570" type="line"/>
      <point x="819" y="570" type="line"/>
      <point x="819" y="0" type="line"/>
    </contour>
  </outline>
</glyph>
<glyph name="b" format="2">
  <advance width="1543"/>
  <unicode hex="0062"/>
  <outline>
    <contour>
      <point x="192" y="0" type="line"/>
      <point x="192" y="1500" type="line"/>
      <point x="278" y="1500" type="line"/>
      <point x="278" y="0" type="line"/>
    </contour>
    <contour>
      <point x="241.0" y="558" type="line" smooth="yes"/>
      <point x="241" y="798.0"/>
      <point x="566.0" y="1012.0"/>
      <point x="801" y="1012.0" type="qcurve" smooth="yes"/>
      <point x="817" y="1012" type="line" smooth="yes"/>
      <point x="1122.0" y="1012.0"/>
      <point x="1471.0" y="719.0"/>
      <point x="1471" y="482" type="qcurve" smooth="yes"/>
      <point x="1471" y="499" type="line" smooth="yes"/>
      <point x="1471.0" y="268.0"/>
      <point x="1107.0" y="-28.0"/>
      <point x="823" y="-28" type="qcurve" smooth="yes"/>
      <point x="813" y="-28" type="line" smooth="yes"/>
      <point x="562.0" y="-28"/>
      <point x="241" y="168.0"/>
      <point x="241" y="428" type="qcurve" smooth="yes"/>
    </contour>
    <contour>
      <point x="291" y="515" type="qcurve" smooth="yes"/>
      <point x="291" y="486" type="line" smooth="yes"/>
      <point x="291" y="260"/>
      <point x="597.0" y="54"/>
      <point x="809" y="54.0" type="qcurve" smooth="yes"/>
      <point x="825" y="54" type="line" smooth="yes"/>
      <point x="1084.0" y="54.0"/>
      <point x="1391.0" y="281.0"/>
      <point x="1391" y="496" type="qcurve" smooth="yes"/>
      <point x="1391" y="485" type="line" smooth="yes"/>
      <point x="1391.0" y="703.0"/>
      <point x="1085.0" y="930.0"/>
      <point x="827" y="930" type="qcurve" smooth="yes"/>
      <point x="813" y="930.0" type="line" smooth="yes"/>
      <point x="609" y="930"/>
      <point x="291" y="729"/>
    </contour>
  </outline>
</glyph>
<glyph name="e" format="2">
  <advance width="1398"/>
  <unicode hex="0065"/>
  <outline>
    <contour>
      <point x="1320" y="319" type="line"/>
      <point x="1317" y="296" type="line" smooth="yes"/>
      <point x="1298" y="157"/>
      <point x="987" y="-27"/>
      <point x="720" y="-27" type="qcurve" smooth="yes"/>
      <point x="709" y="-27" type="line" smooth="yes"/>
      <point x="441" y="-27"/>
      <point x="72" y="256"/>
      <point x="72" y="487" type="qcurve" smooth="yes"/>
      <point x="72" y="487" type="line" smooth="yes"/>
      <point x="72" y="729"/>
      <point x="440" y="1010"/>
      <point x="695" y="1010" type="qcurve" smooth="yes"/>
      <point x="715" y="1010" type="line" smooth="yes"/>
      <point x="1009" y="1010"/>
      <point x="1298" y="787"/>
      <point x="1322" y="575" type="qcurve" smooth="yes"/>
      <point x="1332" y="513" type="line"/>
      <point x="116" y="513" type="line"/>
      <point x="116" y="583" type="line"/>
      <point x="1228" y="583" type="line"/>
      <point x="1223" y="599" type="line" smooth="yes"/>
      <point x="1191" y="784"/>
      <point x="942" y="927"/>
      <point x="708" y="927" type="qcurve" smooth="yes"/>
      <point x="699" y="927" type="line" smooth="yes"/>
      <point x="471" y="927"/>
      <point x="167" y="689"/>
      <point x="167" y="482" type="qcurve" smooth="yes"/>
      <point x="167" y="483" type="line" smooth="yes"/>
      <point x="167" y="281"/>
      <point x="474" y="57"/>
      <point x="698" y="57" type="qcurve" smooth="yes"/>
      <point x="723" y="57" type="line" smooth="yes"/>
      <point x="946" y="57"/>
      <point x="1190" y="185"/>
      <point x="1227" y="297" type="qcurve" smooth="yes"/>
      <point x="1234" y="319" type="line"/>
    </contour>
  </outline>
</glyph>
<glyph name="l" format="2">
  <advance width="359"/>
  <unicode hex="006C"/>
  <outline>
    <contour>
      <point x="194" y="-11" type="qcurve" smooth="yes"/>
      <point x="194" y="1500" type="line"/>
      <point x="281" y="1500" type="line"/>
      <point x="281" y="0" type="line"/>
      <point x="156" y="0"/>
      <point x="194.0" y="-52.0"/>
    </contour>
    <contour>
      <point x="211" y="20" type="line"/>
      <point x="243" y="0" type="line"/>
      <point x="160" y="35" type="line"/>
      <point x="211" y="45" type="line"/>
    </contour>
  </outline>
</glyph>
<glyph name="m" format="2">
  <advance width="2185"/>
  <unicode hex="006D"/>
  <outline>
    <contour>
      <point x="192" y="0" type="line"/>
      <point x="192" y="980" type="line"/>
      <point x="278" y="980" type="line"/>
      <point x="278" y="0" type="line"/>
    </contour>
    <contour>
      <point x="243" y="774" type="line"/>
      <point x="271" y="849"/>
      <point x="569" y="1012"/>
      <point x="747" y="1012" type="qcurve" smooth="yes"/>
      <point x="915" y="1012"/>
      <point x="1145" y="781"/>
      <point x="1149" y="577" type="qcurve" smooth="yes"/>
      <point x="1149" y="0" type="line"/>
      <point x="1063" y="0" type="line"/>
      <point x="1063" y="575" type="line" smooth="yes"/>
      <point x="1063" y="768"/>
      <point x="865" y="927"/>
      <point x="730" y="927" type="qcurve" smooth="yes"/>
      <point x="579" y="927"/>
      <point x="314" y="811"/>
      <point x="247" y="697" type="qcurve"/>
    </contour>
    <contour>
      <point x="1106" y="774" type="line"/>
      <point x="1134" y="849"/>
      <point x="1432" y="1012"/>
      <point x="1610" y="1012" type="qcurve" smooth="yes"/>
      <point x="1778" y="1012"/>
      <point x="2008" y="781"/>
      <point x="2012" y="577" type="qcurve" smooth="yes"/>
      <point x="2012" y="0" type="line"/>
      <point x="1926" y="0" type="line"/>
      <point x="1926" y="575" type="line" smooth="yes"/>
      <point x="1926" y="768"/>
      <point x="1728" y="927"/>
      <point x="1593" y="927" type="qcurve" smooth="yes"/>
      <point x="1442" y="927"/>
      <point x="1177" y="811"/>
      <point x="1110" y="697" type="qcurve"/>
    </contour>
  </outline>
</glyph>
<glyph name="o" format="2">
  <advance width="1482"/>
  <unicode hex="006F"/>
  <outline>
    <contour>
      <point x="734" y="-26" type="line" smooth="yes"/>
      <point x="431" y="-26"/>
      <point x="72" y="246"/>
      <point x="72" y="486" type="qcurve" smooth="yes"/>
      <point x="72" y="478" type="line" smooth="yes"/>
      <point x="72" y="724"/>
      <point x="435" y="1012.0"/>
      <point x="730" y="1012" type="qcurve" smooth="yes"/>
      <point x="736" y="1012" type="line" smooth="yes"/>
      <point x="1049" y="1012.0"/>
      <point x="1410" y="726"/>
      <point x="1410.0" y="481" type="qcurve" smooth="yes"/>
      <point x="1410.0" y="494" type="line" smooth="yes"/>
      <point x="1410" y="247"/>
      <point x="1045" y="-26.0"/>
      <point x="740" y="-26" type="qcurve" smooth="yes"/>
    </contour>
    <contour>
      <point x="736" y="61" type="line" smooth="yes"/>
      <point x="1008.0" y="61.0"/>
      <point x="1320.0" y="289.0"/>
      <point x="1320.0" y="480" type="qcurve" smooth="yes"/>
      <point x="1320.0" y="489" type="line" smooth="yes"/>
      <point x="1320" y="680"/>
      <point x="1020" y="926.0"/>
      <point x="736" y="926" type="qcurve" smooth="yes"/>
      <point x="730" y="926" type="line" smooth="yes"/>
      <point x="442.0" y="926"/>
      <point x="162" y="689.0"/>
      <point x="162" y="490" type="qcurve" smooth="yes"/>
      <point x="162.0" y="482" type="line" smooth="yes"/>
      <point x="162" y="290.0"/>
      <point x="455.0" y="61"/>
      <point x="730" y="61" type="qcurve" smooth="yes"/>
    </contour>
  </outline>
</glyph>
<glyph name="p" format="2">
  <advance width="1521"/>
  <unicode hex="0070"/>
  <outline>
    <contour>
      <point x="192" y="-500" type="line"/>
      <point x="192" y="980" type="line"/>
      <point x="278" y="980" type="line"/>
      <point x="278" y="-500" type="line"/>
    </contour>
    <contour>
      <point x="221.0" y="508" type="line" smooth="yes"/>
      <point x="221.0" y="784.0"/>
      <point x="545.0" y="1012.0"/>
      <point x="815" y="1012" type="qcurve" smooth="yes"/>
      <point x="827" y="1012" type="line" smooth="yes"/>
      <point x="1137.0" y="1012.0"/>
      <point x="1471.0" y="719.0"/>
      <point x="1471" y="482" type="qcurve" smooth="yes"/>
      <point x="1471" y="499" type="line" smooth="yes"/>
      <point x="1471.0" y="268.0"/>
      <point x="1125.0" y="-27.0"/>
      <point x="825" y="-27" type="qcurve" smooth="yes"/>
      <point x="813" y="-27" type="line" smooth="yes"/>
      <point x="540.0" y="-27"/>
      <point x="221" y="154.0"/>
      <point x="221" y="493" type="qcurve" smooth="yes"/>
    </contour>
    <contour>
      <point x="291" y="515" type="qcurve" smooth="yes"/>
      <point x="291" y="486" type="line" smooth="yes"/>
      <point x="291.0" y="240.0"/>
      <point x="596.0" y="54"/>
      <point x="805" y="54" type="qcurve" smooth="yes"/>
      <point x="817" y="54" type="line" smooth="yes"/>
      <point x="1073.0" y="54.0"/>
      <point x="1381.0" y="281.0"/>
      <point x="1381" y="496" type="qcurve" smooth="yes"/>
      <point x="1381" y="485" type="line" smooth="yes"/>
      <point x="1381.0" y="703.0"/>
      <point x="1083" y="930"/>
      <point x="831" y="930" type="qcurve" smooth="yes"/>
      <point x="819" y="930" type="line" smooth="yes"/>
      <point x="608.0" y="930.0"/>
      <point x="291.0" y="722"/>
    </contour>
  </outline>
</glyph>
<glyph name="q" format="2">
  <advance width="1539"/>
  <unicode hex="0071"/>
  <outline>
    <contour>
      <point x="1347" y="-500" type="line"/>
      <point x="1261" y="-500" type="line"/>
      <point x="1261" y="980" type="line"/>
      <point x="1347" y="980" type="line"/>
    </contour>
    <contour>
      <point x="1290" y="492" type="qcurve" smooth="yes"/>
      <point x="1290" y="477" type="line" smooth="yes"/>
      <point x="1290" y="215"/>
      <point x="953" y="-27"/>
      <point x="706" y="-27" type="qcurve" smooth="yes"/>
      <point x="695" y="-27" type="line" smooth="yes"/>
      <point x="404" y="-27"/>
      <point x="56" y="266"/>
      <point x="56" y="493" type="qcurve" smooth="yes"/>
      <point x="56" y="496" type="line" smooth="yes"/>
      <point x="56" y="717"/>
      <point x="408" y="1012"/>
      <point x="692" y="1012" type="qcurve" smooth="yes"/>
      <point x="703" y="1012" type="line" smooth="yes"/>
      <point x="954" y="1012"/>
      <point x="1290" y="781"/>
    </contour>
    <contour>
      <point x="1238" y="499" type="line" smooth="yes"/>
      <point x="1238" y="715"/>
      <point x="930" y="931"/>
      <point x="697" y="931" type="qcurve" smooth="yes"/>
      <point x="685" y="931" type="line" smooth="yes"/>
      <point x="432" y="931"/>
      <point x="136" y="704"/>
      <point x="136" y="499" type="qcurve" smooth="yes"/>
      <point x="136" y="490" type="line" smooth="yes"/>
      <point x="136" y="282"/>
      <point x="424" y="55"/>
      <point x="675" y="55" type="qcurve" smooth="yes"/>
      <point x="687" y="55" type="line" smooth="yes"/>
      <point x="911" y="55"/>
      <point x="1238" y="246"/>
      <point x="1238" y="470" type="qcurve" smooth="yes"/>
    </contour>
  </outline>
</glyph>
<glyph name="s" format="2">
  <advance width="1221"/>
  <unicode hex="0073"/>
  <outline>
    <contour>
      <point x="1099.0" y="292" type="line" smooth="yes"/>
      <point x="1099.0" y="379.0"/>
      <point x="941.0" y="463"/>
      <point x="603.0" y="487" type="qcurve" smooth="yes"/>
      <point x="241" y="511"/>
      <point x="39.0" y="648"/>
      <point x="39.0" y="755" type="qcurve" smooth="yes"/>
      <point x="39.0" y="767" type="line" smooth="yes"/>
      <point x="39.0" y="875"/>
      <point x="315.0" y="1012.0"/>
      <point x="584.0" y="1012" type="qcurve" smooth="yes"/>
      <point x="597.0" y="1012" type="line" smooth="yes"/>
      <point x="848.0" y="1012"/>
      <point x="1120" y="869"/>
      <point x="1135.0" y="724" type="qcurve" smooth="yes"/>
      <point x="1136.0" y="701" type="line"/>
      <point x="1017.0" y="701" type="line"/>
      <point x="1014.0" y="721.0" type="line" smooth="yes"/>
      <point x="1005.0" y="835"/>
      <point x="779" y="931"/>
      <point x="592.0" y="931" type="qcurve" smooth="yes"/>
      <point x="582.0" y="931" type="line" smooth="yes"/>
      <point x="374" y="931"/>
      <point x="144.0" y="846.0"/>
      <point x="144.0" y="759" type="qcurve" smooth="yes"/>
      <point x="144.0" y="755" type="line" smooth="yes"/>
      <point x="144" y="680"/>
      <point x="298.0" y="590"/>
      <point x="650.0" y="565" type="qcurve" smooth="yes"/>
      <point x="995.0" y="541"/>
      <point x="1198.0" y="411.0"/>
      <point x="1198.0" y="293" type="qcurve" smooth="yes"/>
      <point x="1198.0" y="285" type="line" smooth="yes"/>
      <point x="1198.0" y="163"/>
      <point x="897.0" y="-24.0"/>
      <point x="604.0" y="-24" type="qcurve" smooth="yes"/>
      <point x="600.0" y="-24" type="line" smooth="yes"/>
      <point x="286.0" y="-24"/>
      <point x="24.0" y="130"/>
      <point x="7.0" y="259.0" type="qcurve" smooth="yes"/>
      <point x="3.0" y="282" type="line"/>
      <point x="126.0" y="282" type="line"/>
      <point x="128.0" y="293.0" type="line" smooth="yes"/>
      <point x="135" y="169"/>
      <point x="386.0" y="63.0"/>
      <point x="602.0" y="63" type="qcurve" smooth="yes"/>
      <point x="609.0" y="63" type="line" smooth="yes"/>
      <point x="862.0" y="63.0"/>
      <point x="1099" y="185"/>
      <point x="1099.0" y="279" type="qcurve" smooth="yes"/>
    </contour>
  </outline>
</glyph>
<glyph name="t" format="2">
  <advance width="672"/>
  <unicode hex="0074"/>
  <outline>
    <contour>
      <point x="690" y="901" type="line"/>
      <point x="-14" y="901" type="line"/>
      <point x="-14" y="980" type="line"/>
      <point x="690" y="980" type="line"/>
    </contour>
    <contour>
      <point x="354.0" y="236" type="line" smooth="yes"/>
      <point x="354.0" y="151.0"/>
      <point x="433.0" y="72.0"/>
      <point x="493.0" y="72" type="qcurve" smooth="yes"/>
      <point x="547" y="72"/>
      <point x="614.0" y="93"/>
      <point x="628.0" y="107" type="qcurve"/>
      <point x="694.0" y="32" type="line"/>
      <point x="677.0" y="16"/>
      <point x="601.0" y="-16"/>
      <point x="543" y="-16" type="qcurve"/>
      <point x="426.0" y="-16"/>
      <point x="267.0" y="148.0"/>
      <point x="267.0" y="310" type="qcurve" smooth="yes"/>
      <point x="267" y="1233" type="line"/>
      <point x="354" y="1233" type="line"/>
    </contour>
  </outline>
</glyph>
<glyph name="u" format="2">
  <advance width="1364"/>
  <unicode hex="0075"/>
  <outline>
    <contour>
      <point x="1172.0" y="978.0" type="line"/>
      <point x="1172.0" y="-2.0" type="line"/>
      <point x="1086.0" y="-2.0" type="line"/>
      <point x="1086.0" y="978.0" type="line"/>
    </contour>
    <contour>
      <point x="1121.0" y="169.0" type="line"/>
      <point x="1086.0" y="94.0"/>
      <point x="803.0" y="-34.0"/>
      <point x="625.0" y="-34.0" type="qcurve" smooth="yes"/>
      <point x="417.0" y="-34.0"/>
      <point x="173.0" y="197.0"/>
      <point x="173.0" y="401.0" type="qcurve" smooth="yes"/>
      <point x="173.0" y="978.0" type="line"/>
      <point x="259.0" y="978.0" type="line"/>
      <point x="259.0" y="403.0" type="line" smooth="yes"/>
      <point x="259.0" y="210.0"/>
      <point x="467.0" y="51.0"/>
      <point x="644.0" y="51.0" type="qcurve" smooth="yes"/>
      <point x="793.0" y="51.0"/>
      <point x="1049.0" y="139.0"/>
      <point x="1117.0" y="254.0" type="qcurve"/>
    </contour>
  </outline>
</glyph>
<glyph name="w" format="2">
  <advance width="1828"/>
  <unicode hex="0077"/>
  <outline>
    <contour>
      <point x="429" y="0" type="line"/>
      <point x="-10" y="980" type="line"/>
      <point x="84" y="980" type="line"/>
      <point x="504" y="65" type="line"/>
      <point x="850" y="980" type="line"/>
      <point x="986" y="980" type="line"/>
      <point x="1326" y="63" type="line"/>
      <point x="1747" y="980" type="line"/>
      <point x="1837" y="980" type="line"/>
      <point x="1391" y="0" type="line"/>
      <point x="1251" y="0" type="line"/>
      <point x="918" y="952" type="line"/>
      <point x="569" y="0" type="line"/>
    </contour>
  </outline>
</glyph>
<glyph name="y" format="2">
  <advance width="1206"/>
  <unicode hex="0079"/>
  <outline>
    <contour>
      <point x="549" y="4" type="qcurve"/>
      <point x="-21" y="980" type="line"/>
      <point x="81" y="980" type="line"/>
      <point x="609" y="52" type="line"/>
      <point x="1125" y="980" type="line"/>
      <point x="1236" y="980" type="line"/>
      <point x="659" y="1" type="line" smooth="yes"/>
      <point x="536" y="-210"/>
      <point x="265" y="-500"/>
      <point x="133" y="-500" type="qcurve" smooth="yes"/>
      <point x="64" y="-500"/>
      <point x="-1" y="-500"/>
      <point x="-24" y="-493" type="qcurve"/>
      <point x="-12" y="-401" type="line"/>
      <point x="9" y="-406"/>
      <point x="80" y="-410"/>
      <point x="106" y="-410" type="qcurve" smooth="yes"/>
      <point x="212" y="-410"/>
      <point x="466" y="-178"/>
    </contour>
  </outline>
</glyph>
<glyph name="braceright" format="2">
  <advance width="858"/>
  <unicode hex="007D"/>
  <outline>
    <contour>
      <point x="796" y="565" type="qcurve"/>
      <point x="796" y="655" type="line"/>
      <point x="525" y="670"/>
      <point x="429.0" y="732.0"/>
      <point x="429.0" y="780.0" type="qcurve" smooth="yes"/>
      <point x="429" y="817"/>
      <point x="486" y="896"/>
      <point x="520" y="938" type="qcurve" smooth="yes"/>
      <point x="554" y="980"/>
      <point x="617" y="1109"/>
      <point x="617.0" y="1185.0" type="qcurve" smooth="yes"/>
      <point x="617" y="1332"/>
      <point x="264" y="1517"/>
      <point x="-22" y="1526" type="qcurve"/>
      <point x="51" y="1396" type="line"/>
      <point x="315" y="1386"/>
      <point x="520" y="1251"/>
      <point x="520.0" y="1192.0" type="qcurve" smooth="yes"/>
      <point x="520" y="1130"/>
      <point x="493" y="1033"/>
      <point x="454.0" y="987.0" type="qcurve" smooth="yes"/>
      <point x="413.0" y="938.0"/>
      <point x="326.0" y="826.0"/>
      <point x="326.0" y="751.0" type="qcurve" smooth="yes"/>
      <point x="326.0" y="716.0"/>
      <point x="443.0" y="634.0"/>
      <point x="537.0" y="611.0" type="qcurve"/>
      <point x="457.0" y="597.0"/>
      <point x="331.0" y="516.0"/>
      <point x="331.0" y="474.0" type="qcurve" smooth="yes"/>
      <point x="331" y="394"/>
      <point x="419.0" y="287.0"/>
      <point x="459.0" y="234.0" type="qcurve" smooth="yes"/>
      <point x="495" y="184"/>
      <point x="525" y="90"/>
      <point x="525.0" y="30.0" type="qcurve" smooth="yes"/>
      <point x="525.0" y="-25.0"/>
      <point x="320.0" y="-153.0"/>
      <point x="59.0" y="-160.0" type="qcurve"/>
      <point x="-22" y="-305" type="line"/>
      <point x="266" y="-298"/>
      <point x="622" y="-102"/>
      <point x="622.0" y="40.0" type="qcurve" smooth="yes"/>
      <point x="622" y="111"/>
      <point x="558" y="239"/>
      <point x="525" y="283" type="qcurve" smooth="yes"/>
      <point x="492" y="324"/>
      <point x="435" y="403"/>
      <point x="435.0" y="442.0" type="qcurve" smooth="yes"/>
      <point x="435" y="492"/>
      <point x="530" y="561"/>
    </contour>
  </outline>
</glyph>
<glyph name="asciitilde" format="2">
  <advance width="1920"/>
  <unicode hex="007E"/>
  <outline>
    <contour>
      <point x="1020" y="799.0" type="qcurve" smooth="yes"/>
      <point x="936" y="844.0"/>
      <point x="787" y="912.0"/>
      <point x="650" y="912.0" type="qcurve" smooth="yes"/>
      <point x="490" y="912"/>
      <point x="265" y="770.0"/>
      <point x="222" y="715.0" type="qcurve"/>
      <point x="309.0" y="674.0" type="line"/>
      <point x="342" y="712.0"/>
      <point x="518" y="813.0"/>
      <point x="629" y="813.0" type="qcurve"/>
      <point x="740.0" y="813.0"/>
      <point x="856" y="771.0"/>
      <point x="921" y="738.0" type="qcurve" smooth="yes"/>
      <point x="1013" y="689.0"/>
      <point x="1202" y="576.0"/>
      <point x="1327" y="576.0" type="qcurve" smooth="yes"/>
      <point x="1463" y="576.0"/>
      <point x="1679" y="700.0"/>
      <point x="1718" y="753.0" type="qcurve"/>
      <point x="1636" y="799.0" type="line"/>
      <point x="1604" y="765.0"/>
      <point x="1425" y="674.0"/>
      <point x="1331" y="674.0" type="qcurve" smooth="yes"/>
      <point x="1239" y="674"/>
      <point x="1084" y="764"/>
    </contour>
  </outline>
</glyph>
